# AST/ASF file generated using VICON BodyLanguage
# -----------------------------------------------
:version 1.10
:name VICON
:units
  mass 1.0
  length 0.45
  angle deg
:documentation
   .ast/.asf automatically generated from VICON data using
   VICON BodyBuilder and BodyLanguage model FoxedUp or BRILLIANT.MOD
:root
   order TX TY TZ RX RY RZ
   axis XYZ
   position 0 0 0  
   orientation 0 0 0 
:bonedata
  begin
     id 1 
     name lhipjoint
     direction 0.662698 -0.695252 0.27831 
     length 2.53073 
     axis 0 0 0  XYZ
  end
  begin
     id 2 
     name lfemur
     direction 0.34202 -0.939693 0  
     length 7.16147  
     axis 0 0 20  XYZ
    dof rx ry rz
    limits (-160.0 20.0)
           (-70.0 70.0)
           (-60.0 70.0)
  end
  begin
     id 3 
     name ltibia
     direction 0.34202 -0.939693 0   
     length 7.63967   
     axis 0 0 20   XYZ
    dof rx
    limits (-10.0 170.0)
  end
  begin
     id 4 
     name lfoot
     direction 0.0938457 -0.257721 0.961651   
     length 1.89793   
     axis -90 7.62852e-016 20   XYZ
    dof rx rz
    limits (-45.0 90.0)
           (-70.0 20.0)
  end
  begin
     id 5 
     name ltoes
     direction -0.00116841 -0.0030592 0.999995   
     length 0.955649   
     axis -90 7.62852e-016 20   XYZ
    dof rx
    limits (-90.0 20.0)
  end
  begin
     id 6 
     name rhipjoint
     direction -0.649445 -0.705948 0.282592   
     length 2.49238  
     axis 0 0 0  XYZ 
  end
  begin
     id 7 
     name rfemur
     direction -0.34202 -0.939693 0   
     length 6.90728   
     axis 0 0 -20   XYZ
    dof rx ry rz
    limits (-160.0 20.0)
           (-70.0 70.0)
           (-70.0 60.0)
  end
  begin
     id 8 
     name rtibia
     direction -0.34202 -0.939693 0   
     length 7.72868   
     axis 0 0 -20   XYZ
    dof rx
    limits (-10.0 170.0)
 end
 begin
     id 9 
     name rfoot
     direction -0.0920068 -0.252865 0.963117   
     length 1.97476  
     axis -90 -7.62852e-016 -20   XYZ
    dof rx rz
    limits (-45.0 90.0)
           (-20.0 70.0)
  end
  begin
     id 10 
     name rtoes
     direction 0.000391322 0.00230649 0.999997   
     length 0.992641   
     axis -90 -7.62852e-016 -20   XYZ
    dof rx
    limits (-90.0 20.0)
  end
  begin
     id 11 
     name lowerback
     direction -0.00875327 0.998321 -0.0572635   
     length 2.20024   
     axis 0 0 0   XYZ
    dof rx ry rz
    limits (-20.0 45.0)
           (-30.0 30.0)
           (-30.0 30.0)
  end
  begin
     id 12 
     name upperback
     direction 0.00753931 0.999972 -0.000360425   
     length 2.20538   
     axis 0 0 0   XYZ
    dof rx ry rz
    limits (-20.0 45.0)
           (-30.0 30.0)
           (-30.0 30.0)
  end
  begin
     id 13 
     name thorax
     direction 0.0117767 0.999601 0.0256663   
     length 2.21508   
     axis 0 0 0   XYZ
    dof rx ry rz
    limits (-20.0 45.0)
           (-30.0 30.0)
           (-30.0 30.0)
  end
  begin
     id 14 
     name lowerneck
     direction 0.060228 0.994909 0.0807986   
     length 1.7607   
     axis 0 0 0   XYZ
    dof rx ry rz
    limits (-20.0 45.0)
           (-30.0 30.0)
           (-30.0 30.0)
  end
  begin
     id 15 
     name upperneck
     direction -0.0563647 0.959594 -0.275685   
     length 1.75612   
     axis 0 0 0   XYZ
    dof rx ry rz
    limits (-20.0 45.0)
           (-30.0 30.0)
           (-30.0 30.0)
  end
  begin
     id 16
     name head
     direction -0.0161544 0.99458 -0.102714  
     length 1.79288  
     axis 0 0 0   XYZ
    dof rx ry rz
    limits (-20.0 45.0)
           (-30.0 30.0)
           (-30.0 30.0)
  end
  begin
     id 17 
     name lclavicle
     direction 0.93913 0.332189 -0.087669  
     length 3.52087  
     axis 0 0 0   XYZ
    dof ry rz
    limits (-20.0 10.0)
           (0.0 20.0)
  end
  begin
     id 18 
     name lhumerus
     direction 1 -4.48974e-011 -2.70836e-027   
     length 5.35289   
     axis -180 -30 -90   XYZ
    dof rx ry rz
    limits (-60.0 90.0)
           (-90.0 90.0)
           (-90.0 90.0)
  end
  begin
     id 19
     name lradius
     direction 1 -4.48961e-011 -9.76021e-027   
     length 3.27727   
     axis -180 -30 -90   XYZ
    dof rx
    limits (-10.0 170.0)
  end
  begin
     id 20
     name lwrist
     direction 1 -4.49103e-011 -2.23668e-026   
     length 1.63864   
     axis 1.44924e-014 90 90   XYZ
    dof ry
    limits (-180.0 0.0)
 end
  begin
     id 21 
     name lhand
     direction 1 3.0697e-005 0.000161777   
     length 0.54443   
     axis 2.85318e-014 90 90   XYZ
    dof rx rz
    limits (-90.0 90.0)
           (-45.0 45.0)
  end
  begin
     id 22 
     name lfingers
     direction 1 -4.49027e-011 -8.9447e-026   
     length 0.438912   
     axis 5.70628e-014 90 90   XYZ
    dof rx
    limits (0.0 90.0)
  end
  begin
     id 23
     name lthumb
     direction 0.707058 2.6516e-005 0.707156   
     length 0.630274   
     axis -90 45 -3.53137e-014   XYZ
    dof rx rz
    limits (-45.0 45.0)
           (-45.0 45.0)
  end
  begin
     id 24 
     name rclavicle
     direction -0.95274 0.284984 -0.105215   
     length 3.43401  
     axis 0 0 0   XYZ 
    dof ry rz
    limits (-10.0 20.0)
           (-20.0 0.0)
  end
  begin
     id 25 
     name rhumerus
     direction -0.999999 -0.000575019 -0.00106829  
     length 5.52077   
     axis -180 30 90   XYZ
    dof rx ry rz
    limits (-90.0 60.0)
           (-90.0 90.0)
           (-90.0 90.0)
  end
  begin
     id 26 
     name rradius
     direction -1 -4.4879e-011 -6.35415e-027   
     length 3.32364   
     axis -180 30 90   XYZ
    dof rx
    limits (-10.0 170.0)
  end
  begin
     id 27 
     name rwrist
     direction -1 -4.49048e-011 -9.98542e-027   
     length 1.66182   
     axis 6.32482e-015 -90 -90   XYZ
    dof ry
    limits (-180.0 0.0)
  end
  begin
     id 28
     name rhand
     direction -1 -4.48978e-011 -1.99771e-026   
     length 0.732235   
     axis 1.27479e-014 -90 -90   XYZ
    dof rx rz
    limits (-90.0 90.0)
           (-45.0 45.0)
  end
  begin
     id 29
     name rfingers
     direction -1 -4.49144e-011 -3.99245e-026   
     length 0.590347   
     axis 2.5496e-014 -90 -90   XYZ
    dof rx
    limits (0.0 90.0)
  end
  begin
     id 30
     name rthumb
     direction -0.707107 -6.35121e-011 0.707107   
     length 0.847624   
     axis -90 -45 -2.82974e-014   XYZ
    dof rx rz
    limits (-45.0 45.0)
           (-45.0 45.0)
  end
:hierarchy
  begin
    root lhipjoint rhipjoint lowerback
    lhipjoint lfemur
    lfemur ltibia
    ltibia lfoot
    lfoot ltoes
    rhipjoint rfemur
    rfemur rtibia
    rtibia rfoot
    rfoot rtoes
    lowerback upperback
    upperback thorax
    thorax lowerneck lclavicle rclavicle
    lowerneck upperneck
    upperneck head
    lclavicle lhumerus
    lhumerus lradius
    lradius lwrist
    lwrist lhand lthumb
    lhand lfingers
    rclavicle rhumerus
    rhumerus rradius
    rradius rwrist
    rwrist rhand rthumb
    rhand rfingers
  end

#!OML:ASF G:\Work\Work\Patient Classification 1\Elijah\terrain1\Elijah.ASF
:FULLY-SPECIFIED
:DEGREES
294
root 14.4462 21.3361 16.4766 8.95366 5.87218 2.15674
lowerback 6.5727 0.358698 3.07429
upperback 0.743512 0.831747 4.05439
thorax -2.93771 0.40101 2.38977
lowerneck -14.0141 13.6178 12.1207
upperneck 36.314 22.1831 -11.6941
head 19.2021 9.37637 -2.57783
rclavicle 1.07344e-014 -1.59028e-014
rhumerus -36.6265 -7.14017 -75.0635
rradius 34.4607
rwrist -4.32253
rhand -14.0583 19.4229
rfingers 7.12502
rthumb 12.0729 -10.2088
lclavicle 1.07344e-014 -1.59028e-014
lhumerus -42.0759 10.7405 82.087
lradius 34.8934
lwrist -2.67986
lhand -7.14356 26.6596
lfingers 7.12502
lthumb 18.7327 55.7777
rfemur -26.4254 -9.07397 24.0444
rtibia 36.7395
rfoot -19.4492 -4.9192
rtoes 0.0640479
lfemur -15.1662 5.58076 -21.8496
ltibia 52.7074
lfoot 13.9333 -7.39102
ltoes -2.17684
295
root 14.4281 21.3791 16.5893 8.716 6.05988 1.92143
lowerback 6.06057 0.382128 3.35486
upperback 1.04208 0.838574 4.17669
thorax -2.34025 0.406987 2.36052
lowerneck -14.2316 13.3905 11.6498
upperneck 36.3266 21.7804 -11.3506
head 19.0271 9.18506 -2.44499
rclavicle 7.55382e-015 -2.70347e-014
rhumerus -35.9848 -6.89568 -75.1635
rradius 34.2392
rwrist -4.51543
rhand -14.375 19.4314
rfingers 7.12502
rthumb 11.7675 -10.218
lclavicle 7.55382e-015 -2.70347e-014
lhumerus -41.9129 10.8383 81.9684
lradius 35.1675
lwrist -2.00819
lhand -8.08547 27.2318
lfingers 7.12502
lthumb 17.8266 56.4348
rfemur -25.1463 -9.41978 24.3117
rtibia 35.5704
rfoot -19.3407 -4.72868
rtoes 0.380332
lfemur -15.904 6.09962 -21.5759
ltibia 54.8912
lfoot 13.5872 -8.2091
ltoes -3.46596
296
root 14.3988 21.4198 16.6783 8.43717 5.98951 1.08112
lowerback 6.09695 0.512389 4.09233
upperback 1.06439 1.06814 4.44637
thorax -2.33336 0.516738 2.20916
lowerneck -14.0614 13.2739 11.7746
upperneck 36.3961 21.6126 -11.4002
head 19.0256 9.14135 -2.5444
rclavicle -4.37326e-015 3.97569e-014
rhumerus -35.852 -6.63425 -75.2276
rradius 34.378
rwrist -4.67946
rhand -14.5675 19.3265
rfingers 7.12502
rthumb 11.5819 -10.3334
lclavicle -4.37326e-015 3.97569e-014
lhumerus -41.951 10.9107 81.7485
lradius 34.9672
lwrist -1.2971
lhand -9.36171 26.5344
lfingers 7.12502
lthumb 16.5982 55.8446
rfemur -24.037 -8.98934 25.2494
rtibia 34.4374
rfoot -19.171 -4.94957
rtoes 0.872091
lfemur -16.9691 7.00133 -20.5732
ltibia 57.1298
lfoot 13.8314 -8.95155
ltoes -3.33101
297
root 14.4042 21.4521 16.7387 8.43281 6.31543 1.04224
lowerback 6.33546 0.480227 4.62479
upperback 0.899091 1.08807 4.39114
thorax -2.62727 0.517422 1.85057
lowerneck -14.0763 13.2057 11.8273
upperneck 36.508 21.474 -11.3056
head 19.0591 9.10294 -2.54631
rclavicle 2.78299e-015 7.63333e-014
rhumerus -35.7863 -6.47279 -75.2538
rradius 34.4146
rwrist -4.85817
rhand -14.5602 19.4788
rfingers 7.12502
rthumb 11.5889 -10.1807
lclavicle 2.78299e-015 7.63333e-014
lhumerus -42.2042 10.7101 81.6099
lradius 35.1569
lwrist -0.443627
lhand -10.2945 26.1903
lfingers 7.12502
lthumb 15.7 55.5734
rfemur -23.0815 -9.6895 25.2848
rtibia 33.2238
rfoot -18.9171 -4.5416
rtoes 0.748003
lfemur -18.3234 7.1809 -20.6666
ltibia 59.243
lfoot 14.3862 -9.07184
ltoes -0.751331
298
root 14.4035 21.4797 16.8114 8.50657 6.54553 1.40915
lowerback 6.34789 0.499178 4.65599
upperback 0.724627 1.12248 4.22479
thorax -2.81093 0.529683 1.65712
lowerneck -13.79 13.099 12.184
upperneck 36.9098 21.3659 -11.3999
head 19.2942 9.10736 -2.7012
rclavicle -5.96354e-015 -4.77083e-014
rhumerus -35.943 -6.49739 -75.2112
rradius 34.6131
rwrist -4.85542
rhand -14.5284 19.6445
rfingers 7.12502
rthumb 11.6195 -10.0134
lclavicle -5.96354e-015 -4.77083e-014
lhumerus -43.1497 10.2171 81.4981
lradius 36.5448
lwrist 0.511079
lhand -10.9317 26.4393
lfingers 7.12502
lthumb 15.0862 55.8695
rfemur -22.1334 -10.3288 24.8846
rtibia 31.9878
rfoot -18.5882 -4.17967
rtoes 0.168637
lfemur -19.5861 7.29961 -21.2658
ltibia 61.3116
lfoot 14.3424 -9.29148
ltoes -0.563339
299
root 14.3675 21.5138 16.927 8.34673 6.25402 1.18649
lowerback 5.97223 0.686847 4.51949
upperback 0.796183 1.33353 4.37573
thorax -2.53213 0.641072 1.87638
lowerneck -13.548 12.9569 12.2738
upperneck 37.157 21.219 -11.4523
head 19.383 9.06844 -2.80225
rclavicle 1.31198e-014 -2.54444e-014
rhumerus -35.9338 -6.33981 -75.1863
rradius 34.9282
rwrist -4.77296
rhand -14.4386 19.3435
rfingers 7.12502
rthumb 11.7062 -10.3094
lclavicle 1.31198e-014 -2.54444e-014
lhumerus -43.3647 10.5728 81.0651
lradius 36.3073
lwrist 0.746485
lhand -11.953 25.2457
lfingers 7.12502
lthumb 14.1023 54.7472
rfemur -20.9433 -9.72328 25.1491
rtibia 30.7956
rfoot -18.361 -4.49195
rtoes -0.20583
lfemur -20.4673 8.18557 -21.0044
ltibia 63.2432
lfoot 14.063 -9.91405
ltoes -1.35722
300
root 14.3487 21.5437 16.9862 8.13768 6.242 0.648363
lowerback 6.05813 0.695234 4.95465
upperback 1.03775 1.37018 4.60276
thorax -2.32571 0.660949 1.86651
lowerneck -13.966 13.0309 11.3419
upperneck 36.4285 21.1184 -10.8299
head 18.7282 8.97093 -2.35558
rclavicle 4.37326e-015 5.725e-014
rhumerus -35.0145 -6.01875 -75.3092
rradius 34.7466
rwrist -4.69492
rhand -14.5185 19.3551
rfingers 7.12502
rthumb 11.6291 -10.3022
lclavicle 4.37326e-015 5.725e-014
lhumerus -43.2779 10.826 80.9438
lradius 36.8972
lwrist 1.44958
lhand -12.6848 25.102
lfingers 7.12502
lthumb 13.397 54.6512
rfemur -19.9294 -9.46921 25.752
rtibia 29.6103
rfoot -17.9775 -4.66259
rtoes -0.440427
lfemur -21.6378 8.7795 -20.4652
ltibia 65.1531
lfoot 14.3102 -10.1922
ltoes -0.417603
301
root 14.3455 21.5751 17.0543 8.02354 6.42383 0.413915
lowerback 5.68031 0.652623 5.38154
upperback 1.51273 1.27496 4.65578
thorax -1.61443 0.626282 1.6979
lowerneck -14.3571 13.2321 12.4278
upperneck 36.9034 21.5977 -11.7214
head 19.6082 9.1559 -2.78568
rclavicle 1.59028e-015 -1.74931e-014
rhumerus -33.7342 -5.99184 -75.5027
rradius 34.4332
rwrist -4.4288
rhand -14.8042 19.9166
rfingers 7.12502
rthumb 11.3536 -9.75604
lclavicle 1.59028e-015 -1.74931e-014
lhumerus -42.1235 11.7117 80.5717
lradius 36.1027
lwrist 1.51838
lhand -13.3271 24.8947
lfingers 7.12502
lthumb 12.7778 54.4837
rfemur -18.9084 -9.81903 25.991
rtibia 28.406
rfoot -17.6379 -4.42738
rtoes -0.620032
lfemur -22.7076 8.97969 -20.3459
ltibia 66.8844
lfoot 14.3009 -10.3647
ltoes -0.210052
302
root 14.3383 21.6088 17.1373 7.88375 6.53069 0.346205
lowerback 6.71271 0.742003 5.80806
upperback 0.680974 1.57171 4.5096
thorax -3.03703 0.736468 1.26794
lowerneck -13.7621 12.9465 11.7402
upperneck 36.9174 20.8675 -10.5365
head 18.9277 8.96134 -2.3667
rclavicle -2.50469e-014 -4.77083e-015
rhumerus -34.9901 -5.92115 -75.4269
rradius 34.639
rwrist -4.37311
rhand -14.7925 20.0276
rfingers 7.12502
rthumb 11.3649 -9.64446
lclavicle -2.50469e-014 -4.77083e-015
lhumerus -43.4492 11.0572 80.129
lradius 36.3068
lwrist 2.25331
lhand -14.068 25.0121
lfingers 7.12502
lthumb 12.0635 54.6444
rfemur -17.8798 -10.1401 26.044
rtibia 27.3484
rfoot -17.4092 -4.24806
rtoes -0.848546
lfemur -23.6217 9.17493 -20.4029
ltibia 68.4871
lfoot 14.0539 -10.7242
ltoes -1.13173
303
root 14.3196 21.6391 17.2231 7.78223 6.31251 0.448065
lowerback 6.40984 0.866683 5.54353
upperback 0.960594 1.67226 4.5754
thorax -2.58409 0.800907 1.48045
lowerneck -14.0563 12.9791 12.0493
upperneck 37.3924 21.1169 -10.9697
head 19.4993 9.01911 -2.53735
rclavicle -1.43125e-014 -3.18055e-015
rhumerus -34.1139 -5.42701 -75.5274
rradius 34.4081
rwrist -4.67444
rhand -14.5461 19.728
rfingers 7.12502
rthumb 11.6025 -9.93076
lclavicle -1.43125e-014 -3.18055e-015
lhumerus -43.3314 11.4237 80.0214
lradius 36.6872
lwrist 2.72513
lhand -14.8744 24.4517
lfingers 7.12502
lthumb 11.2859 54.1281
rfemur -16.9778 -9.91247 25.9282
rtibia 26.4235
rfoot -17.2927 -4.30994
rtoes 0.0287317
lfemur -24.549 9.68155 -20.6203
ltibia 69.9668
lfoot 13.9827 -10.9566
ltoes -0.81573
304
root 14.2997 21.657 17.2877 7.7738 6.06717 0.407716
lowerback 6.37306 0.957139 5.39606
upperback 1.07469 1.77387 4.68155
thorax -2.45163 0.856487 1.66572
lowerneck -14.0866 13.0621 11.8346
upperneck 37.0934 21.2476 -10.9751
head 19.3081 9.04736 -2.46373
rclavicle -1.07344e-014 2.06736e-014
rhumerus -33.3469 -4.61619 -75.7046
rradius 34.0369
rwrist -4.84074
rhand -14.6304 19.7643
rfingers 7.12502
rthumb 11.5212 -9.89902
lclavicle -1.07344e-014 2.06736e-014
lhumerus -43.3133 11.9036 79.7951
lradius 36.8184
lwrist 3.06803
lhand -15.5844 23.1949
lfingers 7.12502
lthumb 10.6011 52.9075
rfemur -16.2971 -9.47361 26.009
rtibia 25.5375
rfoot -17.1192 -4.49732
rtoes 1.30642
lfemur -25.7496 10.2866 -20.7211
ltibia 71.4556
lfoot 14.0832 -11.0898
ltoes 1.44389
305
root 14.2898 21.6712 17.3437 7.70939 6.12843 0.208921
lowerback 6.59365 0.942651 5.65756
upperback 0.996932 1.80063 4.74983
thorax -2.64995 0.863491 1.58473
lowerneck -13.7707 13.0443 11.8229
upperneck 36.8968 21.2458 -11.0597
head 19.118 9.06262 -2.5196
rclavicle 2.0276e-014 1.74931e-014
rhumerus -32.98 -4.11656 -75.8255
rradius 33.9542
rwrist -4.69102
rhand -14.7351 19.9456
rfingers 7.12502
rthumb 11.4202 -9.72335
lclavicle 2.0276e-014 1.74931e-014
lhumerus -43.3897 12.2048 79.478
lradius 36.7024
lwrist 3.33874
lhand -16.0798 22.8634
lfingers 7.12502
lthumb 10.1232 52.5999
rfemur -15.5345 -9.40498 26.2609
rtibia 24.58
rfoot -16.8287 -4.6799
rtoes 1.47063
lfemur -26.9511 10.5655 -20.6897
ltibia 72.8981
lfoot 14.3943 -11.2008
ltoes 4.80205
306
root 14.2874 21.6907 17.405 7.60965 6.27271 -0.0187297
lowerback 6.96308 0.934762 6.11128
upperback 0.812808 1.87398 4.7863
thorax -3.03462 0.88571 1.35669
lowerneck -13.6745 12.9501 11.7842
upperneck 37.1347 21.1496 -10.9988
head 19.2016 9.02929 -2.523
rclavicle 9.93923e-015 -1.59028e-015
rhumerus -32.892 -3.96582 -75.7969
rradius 34.1861
rwrist -4.47245
rhand -14.5959 19.9058
rfingers 7.12502
rthumb 11.5544 -9.75573
lclavicle 9.93923e-015 -1.59028e-015
lhumerus -43.6752 12.4299 79.1797
lradius 36.8109
lwrist 3.4284
lhand -16.1515 23.8264
lfingers 7.12502
lthumb 10.054 53.5663
rfemur -14.5972 -9.62218 26.522
rtibia 23.3938
rfoot -16.3686 -4.77493
rtoes 1.31481
lfemur -27.9706 10.6002 -20.6423
ltibia 74.2003
lfoot 13.1114 -11.17
ltoes 1.48426
